<?xml version="1.0" encoding="UTF-8"?>
<svg version="1.1" xmlns="http://www.w3.org/2000/svg" width="625" height="626">
<path d="M0 0 C206.25 0 412.5 0 625 0 C625 206.58 625 413.16 625 626 C418.75 626 212.5 626 0 626 C0 419.42 0 212.84 0 0 Z " fill="#000000" transform="translate(0,0)"/>
<path d="M0 0 C33.969375 -0.020625 67.93875 -0.04125 102.9375 -0.0625 C119.05581665 -0.07615601 119.05581665 -0.07615601 135.49975586 -0.09008789 C148.57141113 -0.09460449 148.57141113 -0.09460449 154.6811676 -0.09544373 C158.9694622 -0.0963794 163.25774455 -0.10014279 167.54603577 -0.10557556 C173.00497815 -0.11240052 178.46390256 -0.11449753 183.92284882 -0.11307228 C185.93317583 -0.1133706 187.94350342 -0.11537359 189.95382679 -0.11921513 C192.65563739 -0.12414087 195.35737683 -0.12300777 198.05918884 -0.12025452 C198.85758462 -0.12316718 199.6559804 -0.12607985 200.47856998 -0.12908077 C205.88587517 -0.11412483 205.88587517 -0.11412483 207 1 C207.10110353 3.9453557 207.13969279 6.8667756 207.1328125 9.8125 C207.13376923 10.69655518 207.13472595 11.58061035 207.13571167 12.49145508 C207.13639351 14.36442129 207.13453893 16.23738986 207.13037109 18.11035156 C207.12502289 20.98768388 207.13031593 23.86486008 207.13671875 26.7421875 C207.13605797 28.55729201 207.13477681 30.37239643 207.1328125 32.1875 C207.13483673 33.05415283 207.13686096 33.92080566 207.13894653 34.8137207 C207.11495009 40.88504991 207.11495009 40.88504991 206 42 C203.93907632 42.09156068 201.87497246 42.11210808 199.81202698 42.10534668 C198.49212485 42.10327461 197.17222273 42.10120255 195.81232357 42.09906769 C194.35608276 42.09158878 192.89984275 42.08395243 191.44360352 42.07617188 C189.93973424 42.07161677 188.43586381 42.06742831 186.93199253 42.063591 C182.28794912 42.04980666 177.64399038 42.02572182 173 42 C171.6235696 41.99286828 170.24713909 41.98575685 168.87070847 41.97866821 C160.24681305 41.93185017 151.6230919 41.86792777 142.99935985 41.79807091 C139.388054 41.76910335 135.77673665 41.74164086 132.16542053 41.71398926 C125.3878952 41.6618805 118.61038053 41.60850279 111.83286911 41.5546174 C104.09102567 41.49313067 96.34917084 41.43313739 88.60731494 41.37324238 C72.73819705 41.2504386 56.86909564 41.12565081 41 41 C41.33 57.5 41.66 74 42 91 C85.56 91.33 129.12 91.66 174 92 C174 105.53 174 119.06 174 133 C130.44 133.33 86.88 133.66 42 134 C42 150.17 42 166.34 42 183 C46.96281006 183.02505615 51.92562012 183.0501123 57.03881836 183.07592773 C73.39157837 183.15920937 89.7443059 183.24786906 106.09702206 183.33933926 C116.01673626 183.39469342 125.93645406 183.44817896 135.85620117 183.49731445 C144.49899238 183.54012949 153.14175688 183.5864006 161.78450686 183.63687855 C166.36370895 183.66350116 170.94290567 183.68835468 175.5221386 183.70907402 C179.82714303 183.72860706 184.13209651 183.75274064 188.43705559 183.78049088 C190.02177 183.78987903 191.60649562 183.79754792 193.19122696 183.80341911 C195.34543154 183.81165047 197.49951143 183.8259184 199.65367126 183.84178162 C201.46637717 183.85146044 201.46637717 183.85146044 203.31570339 183.8613348 C206 184 206 184 207 185 C207.10106874 187.87264056 207.13969672 190.72073628 207.1328125 193.59375 C207.13376923 194.45560913 207.13472595 195.31746826 207.13571167 196.20544434 C207.1363935 198.03133212 207.13453904 199.85722231 207.13037109 201.68310547 C207.12502286 204.48801078 207.13031599 207.29275595 207.13671875 210.09765625 C207.13605797 211.86718786 207.13477681 213.63671936 207.1328125 215.40625 C207.13483673 216.25102905 207.13686096 217.09580811 207.13894653 217.96618652 C207.11495031 223.88504969 207.11495031 223.88504969 206 225 C203.34453995 225.0978223 200.7150855 225.12994362 198.05918884 225.12025452 C197.21916321 225.12111053 196.37913757 225.12196655 195.51365662 225.12284851 C192.66785615 225.12451401 189.82211352 225.11896344 186.97631836 225.11352539 C184.91366102 225.11321931 182.85100358 225.11335212 180.78834629 225.11389065 C175.24407394 225.11411723 169.699823 225.10830416 164.15555573 225.10128021 C158.96084014 225.09560256 153.76612988 225.09531804 148.57141113 225.09460449 C133.36010457 225.08934858 118.14880202 225.07538755 102.9375 225.0625 C68.968125 225.041875 34.99875 225.02125 0 225 C0 150.75 0 76.5 0 0 Z " fill="#FEFEFE" transform="translate(338,209)"/>
<path d="M0 0 C6.16999012 -0.37422957 12.33323621 -0.64443005 18.51196289 -0.82397461 C20.60688396 -0.898868 22.70103519 -1.00084097 24.79321289 -1.1315918 C41.65003088 -2.15772896 41.65003088 -2.15772896 47.19207764 1.41192627 C51.01484251 4.83141933 53.913251 8.77770097 56.69288635 13.06427002 C58.7935805 16.17522878 61.27335084 18.93688913 63.75 21.75 C67.89088018 26.63234635 71.9498637 31.58020528 75.984375 36.55078125 C77.80338731 38.76109272 79.66865274 40.91643476 81.5625 43.0625 C84 46 84 46 84 48 C84.66 48 85.32 48 86 48 C87.74063405 50.07002487 89.37852834 52.15193152 91 54.3125 C95.36154519 60.00635698 99.90689913 65.35679989 104.80859375 70.59765625 C106.98728729 72.9860636 109.00821524 75.45468964 111 78 C115.15382689 76.44110459 117.46930353 73.40287637 120.1875 70.0625 C120.91042236 69.19069092 120.91042236 69.19069092 121.64794922 68.30126953 C123.10565028 66.53982067 124.55365473 64.77077799 126 63 C127.18916016 61.55560547 127.18916016 61.55560547 128.40234375 60.08203125 C131.31668516 56.53257853 134.21561148 52.97100884 137.1015625 49.3984375 C142.01497466 43.34154032 147.07393188 37.43056823 152.19775391 31.55224609 C156.1308971 27.03010924 159.95649788 22.43354157 163.73046875 17.77734375 C166.43359693 14.46938482 169.17933574 11.19960292 171.9375 7.9375 C172.41074707 7.37659668 172.88399414 6.81569336 173.37158203 6.23779297 C178.6164046 0.04733899 178.6164046 0.04733899 180.94888306 -0.24050903 C181.743862 -0.23606781 182.53884094 -0.23162659 183.35791016 -0.22705078 C184.25869293 -0.22689972 185.15947571 -0.22674866 186.08755493 -0.22659302 C187.06155243 -0.21627045 188.03554993 -0.20594788 189.0390625 -0.1953125 C190.03505463 -0.1924826 191.03104675 -0.18965271 192.05722046 -0.18673706 C195.24660118 -0.1755184 198.43570378 -0.15041081 201.625 -0.125 C203.78385012 -0.11497238 205.94270463 -0.10584615 208.1015625 -0.09765625 C213.40113699 -0.07557361 218.70054863 -0.04207958 224 0 C224.93634416 11.64152027 224.93634416 11.64152027 221.69140625 15.84765625 C220.67717218 16.94650605 219.63273212 18.0181127 218.5625 19.0625 C217.45450054 20.24233697 216.34774165 21.42334012 215.2421875 22.60546875 C214.69143555 23.17571777 214.14068359 23.7459668 213.57324219 24.33349609 C211.30445982 26.73677176 209.25042253 29.2945623 207.1875 31.875 C204.13276247 35.63720816 201.0000174 39.30477485 197.7890625 42.93359375 C195.76603448 45.27023529 193.820382 47.66083749 191.875 50.0625 C188.17019621 54.62079954 184.36064269 59.07317434 180.5 63.5 C176.00488512 68.65572435 171.61376679 73.87511 167.30859375 79.19140625 C164.58655652 82.50298792 161.79850873 85.75304603 159 89 C153.90060814 94.92043925 148.87556922 100.89259907 144 107 C143.40316406 107.67804688 142.80632812 108.35609375 142.19140625 109.0546875 C140.8045522 110.90299639 140.8045522 110.90299639 141.1171875 112.984375 C142.17223625 115.39324737 143.47851164 117.19742706 145.125 119.25 C145.75921875 120.04148437 146.3934375 120.83296875 147.046875 121.6484375 C149.36051783 124.43406347 151.73635412 127.15581692 154.140625 129.86328125 C156.19172654 132.2203244 158.15916783 134.63390806 160.125 137.0625 C167.10856407 145.6484572 174.42547927 153.95455443 181.75 162.25 C184.29883618 165.15405296 186.74995602 168.12695126 189.1875 171.125 C193.18329957 176.03664498 197.27549856 180.85510072 201.40576172 185.65332031 C203.93619071 188.59328455 206.46084094 191.53747092 208.96484375 194.5 C209.67797729 195.34340942 209.67797729 195.34340942 210.40551758 196.20385742 C211.33485164 197.30767343 212.26055069 198.41456131 213.18237305 199.5246582 C215.11948798 201.84641301 217.06724317 204.06501735 219.2421875 206.16796875 C222.26576495 209.11261747 223.83178825 210.85270961 224.45703125 215.1171875 C224.49614697 218.13976552 224.42136844 221.00732643 224 224 C220.82934959 227.17065041 209.25096884 225.69231601 204.78491211 225.78955078 C202.73879877 225.84599751 200.69320665 225.92757091 198.64916992 226.03564453 C180.77484383 226.96285976 180.77484383 226.96285976 175.04541016 222.2175293 C171.91769472 219.091536 169.46538818 215.6626686 167 212 C165.67974032 210.34366081 164.34928482 208.69528155 163 207.0625 C162.37609375 206.26457031 161.7521875 205.46664062 161.109375 204.64453125 C158.56079893 201.449372 155.91569722 198.34758182 153.25 195.25 C152.74025635 194.65711182 152.2305127 194.06422363 151.70532227 193.45336914 C149.12637347 190.45810951 146.53991727 187.46947339 143.94921875 184.484375 C138.43698773 178.11539903 133.10749164 171.65527207 127.953125 164.99291992 C124.42868645 160.46692766 120.68375567 156.19138268 116.77734375 151.98828125 C115 150 115 150 113 147 C108.69243441 148.57842238 106.26886404 151.88515613 103.4375 155.3125 C102.91373779 155.93552002 102.38997559 156.55854004 101.8503418 157.20043945 C100.76249995 158.49502196 99.67731613 159.79184241 98.59472656 161.09082031 C97.10127236 162.87875844 95.59683099 164.65647894 94.0859375 166.4296875 C89.85956119 171.39121415 85.67374569 176.37978049 81.5625 181.4375 C77.60556582 186.30049424 73.53564058 191.05700203 69.44384766 195.80615234 C66.39340154 199.35383769 63.3907825 202.93297392 60.4375 206.5625 C59.74954346 207.37501221 59.06158691 208.18752441 58.3527832 209.0246582 C55.9229444 211.9703711 55.9229444 211.9703711 53.97558594 215.34619141 C51.03174787 219.95400746 48.0396013 224.1420804 42.57424927 225.68466187 C35.66604528 226.62910022 28.75006629 226.18515013 21.8125 225.8125 C19.69483954 225.74719912 17.57698504 225.68789957 15.45898438 225.63476562 C10.30115036 225.49239791 5.15273485 225.26868627 0 225 C-0.85026272 212.12527647 -0.85026272 212.12527647 2.08984375 208.4921875 C3.49943359 207.19667969 3.49943359 207.19667969 4.9375 205.875 C5.95965624 204.88421135 6.97914791 203.89066713 7.99609375 202.89453125 C8.50640137 202.41193848 9.01670898 201.9293457 9.54248047 201.43212891 C11.72024479 199.29230219 13.59813636 196.94759578 15.5 194.5625 C18.77931042 190.49264153 22.11322128 186.48018117 25.5 182.5 C28.85470341 178.55369832 32.17222437 174.58357179 35.4375 170.5625 C39.39508188 165.69870975 43.46542446 160.94118769 47.55834961 156.19165039 C50.58945289 152.66701081 53.56985316 149.10960118 56.5 145.5 C59.93210511 141.27204443 63.44621669 137.12535524 67 133 C69.00228616 130.66861892 71.00215032 128.33518381 73 126 C73.46067871 125.46213867 73.92135742 124.92427734 74.39599609 124.37011719 C75.66765152 122.8783765 76.92788711 121.37692316 78.1875 119.875 C78.90292969 119.02679688 79.61835938 118.17859375 80.35546875 117.3046875 C82.47674346 114.41338265 82.47674346 114.41338265 83 111 C81.43858649 108.67769508 81.43858649 108.67769508 79.125 106.4375 C75.83621303 102.96628417 72.68644589 99.47529609 69.6875 95.75 C66.19566961 91.43548705 62.62414746 87.20298455 59 83 C54.66511567 77.96818236 50.41165832 72.88108774 46.22265625 67.7265625 C43.77085187 64.71890089 41.29627011 61.73126666 38.8125 58.75 C37.98621094 57.75742187 37.15992188 56.76484375 36.30859375 55.7421875 C34.35867932 53.42604548 32.37719841 51.14572855 30.375 48.875 C28 46 28 46 28 44 C27.34 44 26.68 44 26 44 C24.73046875 42.55859375 24.73046875 42.55859375 23.1875 40.4375 C19.78964329 35.92606 16.15707962 31.68198636 12.4375 27.4375 C11.30655587 26.12823939 10.17632753 24.81836008 9.046875 23.5078125 C7.33839336 21.52710026 5.61631064 19.59008727 3.828125 17.6796875 C0.34220122 13.71237424 -0.26287086 11.07812896 -0.13671875 5.76171875 C-0.11697998 4.68237061 -0.09724121 3.60302246 -0.0769043 2.4909668 C-0.03883667 1.25793823 -0.03883667 1.25793823 0 0 Z " fill="#FDFDFD" transform="translate(80,209)"/>
</svg>
